<?xml version="1.0" encoding="UTF-8" standalone="no"?>
<svg
   fill="none"
   viewBox="0 0 346.6257 79.462898"
   version="1.1"
   id="svg2"
   sodipodi:docname="andsoft.svg"
   width="346.6257"
   height="79.462898"
   inkscape:version="1.3.1 (9b9bdc1480, 2023-11-25, custom)"
   xmlns:inkscape="http://www.inkscape.org/namespaces/inkscape"
   xmlns:sodipodi="http://sodipodi.sourceforge.net/DTD/sodipodi-0.dtd"
   xmlns="http://www.w3.org/2000/svg"
   xmlns:svg="http://www.w3.org/2000/svg">
  <sodipodi:namedview
     id="namedview1"
     pagecolor="#ffffff"
     bordercolor="#000000"
     borderopacity="0.25"
     inkscape:showpageshadow="2"
     inkscape:pageopacity="0.0"
     inkscape:pagecheckerboard="0"
     inkscape:deskcolor="#d1d1d1"
     inkscape:zoom="1.6192893"
     inkscape:cx="110.23354"
     inkscape:cy="130.30408"
     inkscape:window-width="1920"
     inkscape:window-height="1011"
     inkscape:window-x="0"
     inkscape:window-y="32"
     inkscape:window-maximized="1"
     inkscape:current-layer="svg2" />
  <defs
     id="defs2">
    <linearGradient
       id="swatch17">
      <stop
         style="stop-color:#000000;stop-opacity:1;"
         offset="0"
         id="stop17" />
    </linearGradient>
    <rect
       x="-14.421516"
       y="114.96045"
       width="339.63831"
       height="86.109154"
       id="rect2" />
  </defs>
  <path
     fill="#000000"
     d="m 262,-0.5371001 h 68.5 V 12.1629 h -27.2 v 66.6 h -13.6 v -66.6 H 262 Z m -113,0 V 12.1629 H 94 v 20.4 h 44.3 v 12.6 H 94 v 21 h 55 v 12.6 H 80.5 V -0.5371001 h 68.7 z m 34.3,0 H 165.5 L 229.3,78.8629 h 17.9 l -32,-39.7 32,-39.6000001 h -17.9 l -23,28.6000001 -23,-28.6000001 z m 18.3,56.7000001 -9,-11 -27.1,33.7 h 17.8 z"
     id="path1"
     style="display:none" />
  <path
     fill="#000000"
     d="M 81,78.7629 17,-0.5371001 H 0 V 78.7629 h 13.6 v -62.3 l 50.2,62.3 z m 252.6,-0.4 c -1,0 -1.8,-0.4 -2.5,-1 -0.7,-0.6 -1.1,-1.6 -1.1,-2.6 0,-1 0.3,-1.8 1,-2.5 0.7,-0.7 1.6,-1 2.6,-1 1,0 1.8,0.3 2.5,1 a 3.4,3.4 0 0 1 0.6,4.3 3.7,3.7 0 0 1 -3,1.8 z m 23.2,-33.5 h 6 v 23.3 c 0,2.1 -0.4,4 -1.3,5.5 a 9.1,9.1 0 0 1 -3.8,3.5 c -1.6,0.8 -3.5,1.3 -5.7,1.3 -2,0 -3.7,-0.4 -5.3,-1 -1.6,-0.6 -2.8,-1.8 -3.7,-3.2 -0.9,-1.3 -1.4,-3 -1.4,-5 h 6 c 0.1,0.8 0.3,1.6 0.7,2.2 0.4,0.6 1,1.2 1.6,1.5 0.7,0.4 1.5,0.5 2.4,0.5 1,0 1.8,-0.2 2.4,-0.6 a 4,4 0 0 0 1.6,-1.8 c 0.3,-0.8 0.5,-1.8 0.5,-3 v -23.1 z m 30.9,9.1 a 4.4,4.4 0 0 0 -2,-3.3 7.5,7.5 0 0 0 -4.3,-1.1 c -1.3,0 -2.4,0.2 -3.3,0.5 -0.9,0.4 -1.6,1 -2,1.6 a 3.5,3.5 0 0 0 -0.3,4 c 0.3,0.5 0.7,0.9 1.3,1.2 l 1.8,1 2,0.5 3.2,0.8 c 1.3,0.3 2.5,0.7 3.7,1.2 a 13,13 0 0 1 3.2,1.8 8.1,8.1 0 0 1 3,6.5 c 0,2 -0.5,3.7 -1.5,5.1 a 10,10 0 0 1 -4.4,3.5 c -1.8,0.8 -4.1,1.2 -6.8,1.2 -2.6,0 -4.9,-0.4 -6.8,-1.2 -2,-0.8 -3.4,-2 -4.5,-3.5 a 10,10 0 0 1 -1.7,-5.6 h 6 a 5,5 0 0 0 3.5,4.6 c 1,0.4 2.2,0.6 3.4,0.6 1.3,0 2.5,-0.2 3.5,-0.6 1,-0.4 1.8,-1 2.4,-1.7 a 4,4 0 0 0 0.8,-2.4 c 0,-0.9 -0.2,-1.6 -0.7,-2.2 a 11,11 0 0 0 -2.1,-1.4 l -3.2,-1 -3.8,-1 c -2.8,-0.7 -5,-1.7 -6.6,-3.2 a 7.2,7.2 0 0 1 -2.4,-5.7 8,8 0 0 1 1.7,-5 10,10 0 0 1 4.3,-3.5 c 2,-0.8 4,-1.2 6.4,-1.2 2.3,0 4.4,0.4 6.2,1.2 1.8,0.8 3.2,2 4.3,3.4 1,1.4 1.5,3 1.5,5 h -5.8 z"
     id="path2"
     style="display:none" />
  <path
     style="color:#000000;fill:#000000;-inkscape-stroke:none"
     d="m 216.0708,32.11986 c 0.13261,-7.014956 -4.02043,-13.461113 -10.46206,-16.241878 -6.44163,-2.780765 -13.97933,-1.380438 -18.99353,3.527199 -5.01421,4.907637 -6.57532,12.413876 -3.93356,18.913747 2.64175,6.499871 5.2553,3.906782 12.27149,3.924877 l 3.77782,-7.117872 c -1.37385,-0.0035 -2.56331,-0.805527 -3.08059,-2.078264 -0.51728,-1.272738 -0.2244,-2.677721 0.75742,-3.638684 0.98183,-0.960962 2.39082,-1.222584 3.65216,-0.678084 1.26133,0.544501 2.03941,1.750748 2.01343,3.124344 z"
     id="circle8"
     sodipodi:nodetypes="csssccssscc" />
  <path
     style="color:#000000;fill:#000000;stroke:#000000;stroke-opacity:1;-inkscape-stroke:none"
     d="m 177.93681,57.28154 c 0.004,-12.19705 10.03863,-22.235324 22.23568,-22.242966 12.19705,-0.0076 22.24485,10.017103 22.2644,22.214139 0.0195,12.197035 -9.99559,22.254368 -22.1926,22.285824 l -0.0361,-13.999954 c 4.63572,-0.01196 8.23614,-3.627713 8.22872,-8.263437 -0.007,-4.635723 -3.61992,-8.239452 -8.25565,-8.236548 -4.63573,0.0029 -8.24275,3.612124 -8.24438,8.247852 z"
     id="circle9" />
  <path
     style="color:#000000;fill:#000000;-inkscape-stroke:none"
     d="m 269.05458,56.651118 c 0.0324,-12.562839 -10.27452,-22.923059 -22.83736,-22.955458 -12.56284,-0.0324 -22.92306,10.27452 -22.95546,22.837359 -0.0324,12.562838 10.27453,22.923058 22.83736,22.955457 12.56284,0.0324 22.92306,-10.27452 22.95546,-22.837358 z m -13.99996,-0.03611 c -0.0129,4.99671 -3.92269,8.886397 -8.91939,8.873511 -4.99671,-0.01289 -8.8864,-3.922689 -8.87352,-8.919398 0.0129,-4.996711 3.92269,-8.886398 8.91941,-8.873512 4.9967,0.01289 8.88639,3.922689 8.8735,8.919399 z"
     id="circle10" />
  <path
     id="rect17"
     style="fill:#000000;stroke-width:0.753034"
     d="M 93.53125,36.861338 80.156251,41.572275 80,41.412118 l 2e-6,38.044924 13.999996,-4e-6 10e-7,-23.570312 23.011721,23.525391 9.04101,-8.945313 -0.55273,-0.570307 0.58203,0.546869 v -31.0625 l -14,-3e-6 v 16.650393 z" />
  <path
     id="circle18"
     style="color:#000000;fill:#000000;-inkscape-stroke:none"
     d="m 293.08789,-0.46092823 0,0.0273438 c -9.64518,0.0549263 -18.28578,6.20540594 -21.48046,15.32421844 -0.86605,2.471993 -1.2687,5.022244 -1.26759,7.548828 l -0.0195,1e-6 0,57.099609 14,-4e-6 5e-5,-36.003906 c 6.83545,2.875801 14.8161,2.332117 21.25781,-1.798829 l -7.55859,-11.785155 c -3.21776,2.063478 -7.31925,1.860317 -10.31836,-0.509766 -2.15533,-1.703288 -3.34644,-4.221175 -3.38085,-6.841797 l -1e-5,-0.160156 -0.002,0 c 0.005,-0.974119 0.16483,-1.959604 0.50196,-2.921876 1.26385,-3.607555 4.62084,-5.974886 8.44335,-5.955078 l 0,-0.02344 22.55664,3e-6 1e-5,66 13.99999,5e-6 0,-66 17.44531,10e-7 1e-5,-14.00000009 -17.44532,2e-8 -14,5e-8 z" />
  <path
     id="rect37"
     style="fill:#000000;fill-opacity:1;stroke:none;stroke-width:8.32401;stroke-dasharray:none;stroke-opacity:1"
     d="m 160.12695,-0.49608448 v 56.60937548 0.07813 c 0.21017,4.953046 -3.46724,9.004339 -8.42968,9.257812 -4.98882,0.25482 -9.08315,-3.439019 -9.33985,-8.427734 -0.2567,-4.988715 3.43716,-9.085171 8.42578,-9.34375 L 150.05664,33.69728 c -12.54276,0.650141 -22.32705,11.499967 -21.68164,24.042969 0.64541,12.543002 11.49386,22.33014 24.03711,21.689453 12.54324,-0.640688 22.33322,-10.686984 21.69727,-23.230469 l -1.27149,-0.0078 h 1.28906 V -0.49608448 Z" />
  <path
     id="rect41"
     style="fill:#000000;fill-opacity:1;stroke:none;stroke-width:9.88637;stroke-dasharray:none;stroke-opacity:1"
     d="M 43.257812,-0.53319349 38.236315,8.0859387 33.218737,-0.52148268 21.808581,6.001955 30.634753,21.140627 0.40233116,73.046877 11.812487,79.576173 38.244127,34.195314 64.664049,79.513673 76.074203,72.988282 45.847643,21.140627 54.669899,5.9960905 Z" />
</svg>
